PathFileType	4	(X/Y/Z)	Patient4_TMGait_0pt3_01_right_24.trc.trc
DataRate	CameraRate	NumFrames	NumMarkers	Units	OrigDataRate	OrigDataStartFrame	OrigNumFrames
52.238805970149	52.238805970149	6	33	mm	52.238805970149	36	       141
Frame#	Time	Sacral			L.Shoulder			Chest			R.Shoulder			Neck			R.ASIS			L.ASIS			R.Thigh.Superior			R.Thigh.Lateral			R.Thigh.Inferior			R.Patella			L.Thigh.Superior			L.Thigh.Lateral			L.Thigh.Inferior			L.Patella			L.Shank.Superior			L.Shank.Lateral			L.Shank.Inferior			R.Shank.Superior			R.Shank.Lateral			R.Shank.Inferior			R.Heel			R.Midfoot.Superior			R.Midfoot.Lateral			R.Toe			L.Heel			L.Midfoot.Lateral			L.Midfoot.Superior			L.Toe			L.Elbow			L.Wrist			R.Elbow			R.Wrist			
		X1	Y1	Z1	X2	Y2	Z2	X3	Y3	Z3	X4	Y4	Z4	X5	Y5	Z5	X6	Y6	Z6	X7	Y7	Z7	X8	Y8	Z8	X9	Y9	Z9	X10	Y10	Z10	X11	Y11	Z11	X12	Y12	Z12	X13	Y13	Z13	X14	Y14	Z14	X15	Y15	Z15	X16	Y16	Z16	X17	Y17	Z17	X18	Y18	Z18	X19	Y19	Z19	X20	Y20	Z20	X21	Y21	Z21	X22	Y22	Z22	X23	Y23	Z23	X24	Y24	Z24	X25	Y25	Z25	X26	Y26	Z26	X27	Y27	Z27	X28	Y28	Z28	X29	Y29	Z29	X30	Y30	Z30	X31	Y31	Z31	X32	Y32	Z32	X33	Y33	Z33	

36	44.700000000000	777.235336628850	1006.444694735189	494.414331936250	1012.304053378315	1440.794994694368	387.745542586276	1058.372828063073	1362.060929527323	567.886469410803	925.959168908019	1432.604175340627	710.073936923355	948.543425244812	1494.405049790811	537.957677423136	974.560970654374	943.601538256551	665.755186509976	1022.789995894205	959.876038750754	395.535662725385	1035.766040443825	748.996344668730	634.078272605983	956.559315522114	633.908407609663	682.650520399550	1045.208559694610	587.257586231412	610.109788146143	1053.316306428488	499.053061208141	615.653896614411	1022.425436878015	727.074094397395	415.997671314537	920.394811162870	627.270742483886	337.846460177546	980.800375444737	533.719721043949	405.220133733003	964.321438176671	458.110679692218	405.229348936883	909.272579410605	401.101598126588	391.568144496307	784.985878663726	328.589491014673	335.212289393018	794.171153753296	200.429434514378	393.916439441273	1026.674190074281	409.435505559342	620.510660059757	956.319812254473	304.752123286722	681.904932069365	1001.946578310343	209.827580152982	620.497422647311	870.540777996930	44.362459890106	593.826925746926	1043.012931456583	97.902072562757	627.397282157292	954.777823824042	37.856077917701	666.780057954374	1162.862353422438	43.854214148058	653.214845574224	623.672323668592	82.212148734735	427.489308574166	694.519275622368	59.543509636434	348.821043371652	789.153006617103	103.614904417166	372.196435752993	900.981044299839	36.808365438935	345.687063647965	1163.507983717093	1154.907501633409	233.538361935964	1419.967394969284	1161.211355721008	273.615285737625	775.228066415613	1107.703564329792	766.270896362584	781.349607444931	846.151608146673	786.889950257843	
37	44.719142857143	777.276036264235	1007.469224947581	501.030553540066	1011.143997158265	1441.696679143288	391.785588418457	1058.855484571809	1363.168760586088	571.690087799608	927.467465269596	1433.770278272019	714.808420243916	948.571630097855	1495.513535553356	542.210053342565	975.586864450871	944.424430658760	670.823551825495	1022.022361805691	960.822091733049	400.463077080581	1034.430864479513	748.367722106661	638.788087453199	953.695664224130	633.936403929199	686.544320014852	1041.652427899190	586.674103308432	613.719727619951	1048.834735653823	498.645469475090	618.357110451148	1024.120665705197	728.747247564706	419.916146239208	923.633943793325	628.049449976867	341.454825976945	986.344151209010	534.569327788522	407.615472188598	970.391089160762	457.917036989481	406.564915768104	913.500248720285	401.702602011275	393.098792901432	787.200526895143	332.540824251839	336.930793414675	794.222674626734	203.403377242449	393.776007822405	1022.075581717941	409.280274183098	622.673622557023	951.577423282729	304.397012728314	683.418604314115	996.844503742785	209.730048475381	621.324968953370	865.106380738206	44.338154814367	593.902025095986	1037.515578453398	97.932742289244	627.592205287965	949.352550670718	37.823947600493	666.800808571726	1157.431771505514	43.653311643748	653.331540456630	620.937049903649	90.149810921908	426.923637138717	690.787614591783	64.261187478104	348.489253168327	786.988682948351	104.925047042366	371.417101465949	895.504480952654	36.357412553019	345.892663993555	1157.429402049575	1151.528238540841	238.754948027207	1414.652323357238	1150.492836944947	276.866736917701	778.527004354855	1108.433599596229	774.505042435435	788.224838608192	847.294520810445	797.375585569489	
38	44.738285714286	777.097042980416	1008.304708972470	507.697208956974	1009.698776974430	1442.288599284116	395.523524178387	1059.155612954579	1364.128841278017	575.214009802035	928.884257358069	1434.903380613265	719.274438590179	948.470099092555	1496.455654672779	546.143631652504	976.449063119852	945.036566893928	675.888424394323	1020.962581709538	961.597847324406	405.368933085881	1033.086943200594	747.744984840947	643.335842695303	951.026658687029	633.843377069665	690.385777326322	1038.302101260883	586.076374928943	617.264426647574	1044.604756322428	498.157488921917	621.083492399669	1025.962380454962	730.456423112241	423.857905236800	927.340028084128	628.744466716280	345.014440892092	992.400107904852	535.480610450310	410.145456856679	977.067347170558	457.776345287091	407.974733242179	918.381127685917	402.278666641633	394.649128160630	790.151807788908	336.640721604550	338.593656873112	794.802962222814	206.624711900601	393.642719305537	1017.658382345259	409.034901213398	624.852000324489	946.937197849713	304.000996105403	684.957818009172	991.789638471406	209.586375954745	622.178507845710	859.615531210052	44.334381546479	593.965119963488	1031.967820594094	97.948759578058	627.783639465581	943.867184476955	37.800616761259	666.825318150043	1151.930177329303	43.471912541827	653.452663890083	618.679052865712	98.869947134756	426.205953540667	687.399437538389	69.644611785352	348.054768597252	785.132102820080	106.513938868315	370.668090328839	890.007328425414	35.764464554942	346.176365350499	1150.450287415525	1147.551859927306	243.830321484482	1408.189181462573	1137.854674670723	279.777984245423	781.951508041758	1109.123753980589	782.917317408912	795.579609858214	848.506906402873	808.194348230811	
39	44.757428571429	776.690979411413	1008.916914301094	514.384977102192	1007.941390716933	1442.556043143915	398.990665704475	1059.238100452512	1364.902194049098	578.473517915232	930.183818758605	1435.945797613259	723.494798967656	948.197290451498	1497.190204641344	549.801943419346	977.173644431413	945.409748767992	680.895071938714	1019.603227341427	962.193740752517	410.194969351468	1031.871687197361	747.147981895305	647.641924063418	948.761129905053	633.621292817614	694.142268051879	1035.378936301604	585.477063909300	620.696393898828	1040.892172370380	497.554542339493	623.828260916173	1027.952911466349	732.194756931233	427.822032290941	931.545950405013	629.364504725184	348.517727232449	998.938440378198	536.479921029479	412.873552679864	984.328972494123	457.711810432941	409.515781063505	923.905808670239	402.843172397728	396.252231967135	793.844005511049	340.914684475683	340.222418414380	795.905705765195	210.143846250674	393.570071096817	1013.617218892646	408.664757225868	627.035554009546	942.538193090907	303.568023299159	686.527240063235	986.854168344026	209.375625740959	623.052024153451	854.047957817700	44.362306261581	594.018862333470	1026.368394846798	97.940441209951	627.961571089633	938.304542237305	37.790904119806	666.852223681335	1146.351204280722	43.284060866732	653.573512444195	616.944222021033	108.419436953325	425.396202556527	684.403146618002	75.812390630502	347.554151178784	783.582211969057	108.521681511344	370.001289307751	884.519093233693	35.032055615280	346.512363274933	1142.594286085908	1143.046519241723	248.777372043291	1400.388713542254	1123.171925430702	282.388057306600	785.561034979107	1109.670228534019	791.457026952038	803.472225061707	849.698857539043	819.286999551955	
40	44.776571428571	776.045857424807	1009.270786626621	521.057639250400	1005.851148695751	1442.491075107585	402.222094932717	1059.076476387906	1365.441524582228	581.482183045467	931.356781754107	1436.827385560143	727.498639452019	947.720167081824	1497.675552420926	553.235830125045	977.778675968010	945.524875166334	685.781684457877	1017.936405294094	962.591352839242	414.874544804831	1030.895966609308	746.581789378517	651.672137437766	947.054141899821	633.256824731309	697.796131358788	1033.071206958868	584.880854675882	624.003803184449	1037.925556273736	496.803989132410	626.607545508903	1030.094811114448	733.962099878561	431.816256259958	936.294305681757	629.915454047979	351.962768649431	1005.956063144127	537.594575045076	415.850786439285	992.182235350651	457.742335458606	411.240374905846	930.080304662513	403.406296793160	397.946629219212	798.285167911600	345.386005911182	341.861393722456	797.530508927821	214.006435171225	393.630563095081	1010.117995230321	408.138374890691	629.229403677001	938.492706995052	303.100519314227	688.132288046510	982.105165965448	209.082989083233	623.949905920248	848.402869947688	44.430510934998	594.068239719229	1020.730672181026	97.907345637085	628.125051472426	932.667002482352	37.797137283307	666.879791493077	1140.703306436644	43.075443296234	653.691077574582	615.783471223535	118.806282684219	424.605300593931	681.853735332748	82.866653376605	347.055884969215	782.351736543910	111.096445411035	369.478577578816	879.096476198790	34.201551762856	346.853461342259	1133.918896162337	1138.097022583917	253.613677669086	1391.044795122781	1106.363591355407	284.748786494924	789.432242469435	1109.962295501106	800.070724884485	811.956182194657	850.773039799211	830.591942545405	
41	44.795714285714	775.148410812219	1009.326147272135	527.671360015339	1003.415228815679	1442.087771571062	405.251721677507	1058.651918036682	1365.693264512980	584.250696069787	932.402225543636	1437.468402596176	731.315922816521	947.014732485448	1497.869351085749	556.496601960902	978.272221307054	945.370040531123	690.485492368586	1015.957976572391	962.760519133343	419.339208692675	1030.239810871799	746.038258413759	655.434181750714	946.002567288814	632.730985243418	701.341457188057	1031.523771137645	584.283024377760	627.203479482749	1035.880411259258	495.876604000804	629.449794426786	1032.385871250555	735.760170333973	435.844820729261	941.614004209038	630.400983043070	355.347218131859	1013.460071879451	538.849554092098	419.095221039633	1000.643313272824	457.883525358719	413.178992124077	936.911651994712	403.974870566032	399.763105310874	803.473804773420	350.064549671168	343.572247400205	799.680699471325	218.238508959878	393.906331270427	1007.287305539861	407.427824492447	631.448250674669	934.879633301032	302.598997676661	689.774883505567	977.598494674193	208.699065337432	624.881901140123	842.694000855280	44.545914604754	594.117155642832	1015.077939264845	97.856158205549	628.279612554233	926.969914980590	37.820344232194	666.905138588894	1135.004008209876	42.840214418823	653.804308561914	615.251663417212	129.966357403752	423.993391043407	679.812633247991	90.859867992555	346.659088083966	781.471303625262	114.368379054880	369.164895381410	873.831710840726	33.361137744070	347.127907668571	1124.504702196714	1132.789715909090	258.359928896959	1379.933222429291	1087.419822621974	286.918724914702	793.657813492413	1109.884056336547	808.702766517831	821.089831653924	851.626404504953	842.045196447596	
